# xmcd
#
# Track frame offsets: 
#        150
#        13865
#        29257
#        48437
#        63960
#        80663
#        101158
#        118557
#        134540
#        151834
#        168655
#        186799
#
# Disc length: 2721 seconds
#
# Revision: 0
# Processed by: cddbd v1.5.2PL0 Copyright (c) Steve Scherf et al.
# Submitted via: ExactAudioCopyFreeDBPlugin 1.0
#
DISCID=9f0a9f0c
DTITLE=Blue Sky Riders - Why Not
DYEAR=2015
DGENRE=
TTITLE0=What Went Right
TTITLE1=Why Not
TTITLE2=The Rodeo
TTITLE3=No Tomorrow Tonight
TTITLE4=Nothing Matters More Than Love
TTITLE5=No Fool Like An Old Fool
TTITLE6=Flyin' Dreams
TTITLE7=I'm Lucky Like That
TTITLE8=Whatever Happened To
TTITLE9=What's So Great About Love
TTITLE10=Zero Miles To Empty
TTITLE11=Thank You (For Reminding Me)
EXTD=
EXTT0=
EXTT1=
EXTT2=
EXTT3=
EXTT4=
EXTT5=
EXTT6=
EXTT7=
EXTT8=
EXTT9=
EXTT10=
EXTT11=
PLAYORDER=
